<svg width="64" height="64" viewBox="0 0 24 24" fill="none" xmlns="http://www.w3.org/2000/svg">
  <!-- offset shadow layer -->
  <path transform="translate(0.6,0.6)" d="M12 2.2
    L13.4 2.2 L13.9 4.4 C14.7 4.6 15.4 4.9 16.1 5.3 L18 4.1 L19.9 6 L18.7 7.9
    C19.1 8.6 19.4 9.3 19.6 10.1 L21.8 10.6 L21.8 13.4 L19.6 13.9
    C19.4 14.7 19.1 15.4 18.7 16.1 L19.9 18 L18 19.9 L16.1 18.7
    C15.4 19.1 14.7 19.4 13.9 19.6 L13.4 21.8 L10.6 21.8 L10.1 19.6
    C9.3 19.4 8.6 19.1 7.9 18.7 L6 19.9 L4.1 18 L5.3 16.1
    C4.9 15.4 4.6 14.7 4.4 13.9 L2.2 13.4 L2.2 10.6 L4.4 10.1
    C4.6 9.3 4.9 8.6 5.3 7.9 L4.1 6 L6 4.1 L7.9 5.3
    C8.6 4.9 9.3 4.6 10.1 4.4 L10.6 2.2 Z" fill="#1B1B1F"/>
  <!-- main gear shape -->
  <g transform="translate(-0.6,-0.6)">
    <path d="M12 2.2
      L13.4 2.2 L13.9 4.4 C14.7 4.6 15.4 4.9 16.1 5.3 L18 4.1 L19.9 6 L18.7 7.9
      C19.1 8.6 19.4 9.3 19.6 10.1 L21.8 10.6 L21.8 13.4 L19.6 13.9
      C19.4 14.7 19.1 15.4 18.7 16.1 L19.9 18 L18 19.9 L16.1 18.7
      C15.4 19.1 14.7 19.4 13.9 19.6 L13.4 21.8 L10.6 21.8 L10.1 19.6
      C9.3 19.4 8.6 19.1 7.9 18.7 L6 19.9 L4.1 18 L5.3 16.1
      C4.9 15.4 4.6 14.7 4.4 13.9 L2.2 13.4 L2.2 10.6 L4.4 10.1
      C4.6 9.3 4.9 8.6 5.3 7.9 L4.1 6 L6 4.1 L7.9 5.3
      C8.6 4.9 9.3 4.6 10.1 4.4 L10.6 2.2 Z"
      fill="#22B8CF" stroke="#1B1B1F" stroke-width="1.5" stroke-linejoin="round"/>
    <circle cx="12" cy="12" r="4" fill="#6C5CE7" stroke="#1B1B1F" stroke-width="1.5"/>
    <circle cx="12" cy="12" r="1.6" fill="#FFD166" stroke="#1B1B1F" stroke-width="0.8"/>
    <!-- signature spark -->
    <path d="M18.6 4.6L19.2 5.9L20.5 6.5L19.2 7.1L18.6 8.4L18 7.1L16.7 6.5L18 5.9Z" fill="#FFD166" stroke="#1B1B1F" stroke-width="0.8" stroke-linejoin="round"/>
  </g>
</svg>
